[Header]
FileType HTR
DataType HTRS
FileVersion 1
NumSegments 36
NumFrames 4
DataFrameRate 120
EulerRotationOrder ZYX
CalibrationUnits mm
RotationUnits Degrees
GlobalAxisofGravity Y
BoneLengthAxis Y
ScaleFactor 1.0
[SegmentNames&Hierarchy]
Hips	GLOBAL
Spine	Hips
Spine1	Spine
Spine2	Spine1
Spine3	Spine2
Neck	Spine3
Head	Neck
HeadEnd	Head
RightShoulder	Spine3
RightArm	RightShoulder
RightForeArm	RightArm
RightForeArmRoll	RightForeArm
RightHand	RightForeArmRoll
RightHandEnd	RightHand
R_FingersEnd	RightHandEnd
RightHandThumb1	RightHand
RightHandThumb2	RightHandThumb1
LeftShoulder	Spine3
LeftArm	LeftShoulder
LeftForeArm	LeftArm
LeftForeArmRoll	LeftForeArm
LeftHand	LeftForeArmRoll
LeftHandEnd	LeftHand
L_FingersEnd	LeftHandEnd
LeftHandThumb1	LeftHand
LeftHandThumb2	LeftHandThumb1
RightUpLeg	Hips
RightLeg	RightUpLeg
RightFoot	RightLeg
RightToeBase	RightFoot
RightToeBaseEnd	RightToeBase
LeftUpLeg	Hips
LeftLeg	LeftUpLeg
LeftFoot	LeftLeg
LeftToeBase	LeftFoot
LeftToeBaseEnd	LeftToeBase
[BasePosition]
Hips	0	0	0	0	0	0	1
Spine	0	0	0	-10	-0	0	1
Spine1	0	0	0	5	0	0	1
Spine2	0	0	0	5	0	0	1
Spine3	0	0	0	0	0	0	1
Neck	0	0	0	10	0	0	1
Head	0	0	0	-10	-0	0	1
HeadEnd	0	0	0	0	0	0	1
RightShoulder	0	0	0	-180	-0	-180	1
RightArm	0	0	0	0	0	0	1
RightForeArm	0	0	0	0	0	0	1
RightForeArmRoll	0	0	0	0	0	0	1
RightHand	0	0	0	0	0	0	1
RightHandEnd	0	0	0	-90	-0	0	1
R_FingersEnd	0	0	0	0	0	0	1
RightHandThumb1	0	0	0	170	-0	-15	1
RightHandThumb2	0	0	0	0	0	0	1
LeftShoulder	0	0	0	0	0	0	1
LeftArm	0	0	0	0	0	0	1
LeftForeArm	0	0	0	0	0	0	1
LeftForeArmRoll	0	0	0	0	0	0	1
LeftHand	0	0	0	0	0	0	1
LeftHandEnd	0	0	0	90	0	0	1
L_FingersEnd	0	0	0	0	0	0	1
LeftHandThumb1	0	0	0	170	-0	-15	1
LeftHandThumb2	0	0	0	0	0	0	1
RightUpLeg	0	0	0	-0	90	0	1
RightLeg	0	0	0	0	0	0	1
RightFoot	0	0	0	0	-0	-70	1
RightToeBase	0	0	0	0	-0	-20	1
RightToeBaseEnd	0	0	0	0	0	0	1
LeftUpLeg	0	0	0	-0	90	0	1
LeftLeg	0	0	0	0	0	0	1
LeftFoot	0	0	0	0	-0	-70	1
LeftToeBase	0	0	0	0	-0	-20	1
LeftToeBaseEnd	0	0	0	0	0	0	1
[Hips]
98	-6.520009518	970.9974365	-21.52399445	-88.84342957	0.03219161928	0.1620144695	1.0
99	-6.539607525	971.0287476	-21.51687813	-88.84716034	0.03273969889	0.1551106721	1.0
100	-6.556108475	971.0541992	-21.50984955	-88.85280609	0.03384498507	0.1477576792	1.0
101	-6.564881325	971.0669556	-21.51603508	-88.85847473	0.03188567981	0.1433354169	1.0
[Spine]
98	0	44.87670517	67.31505585	-0.211354658	0.3433941603	0.07163639367	1.0
99	0	44.87670517	67.31505585	-0.2030947804	0.3469486237	0.07419613004	1.0
100	0	44.87670517	67.31505585	-0.1952949166	0.3498792052	0.07652670145	1.0
101	0	44.87670517	67.31505585	-0.19219473	0.3510506153	0.07754793763	1.0
[Spine1]
98	0	0	89.75341034	-0.5809491277	0.02837369218	0.004213702399	1.0
99	0	0	89.75341034	-0.565713644	0.03486502916	0.006686248351	1.0
100	0	0	89.75341034	-0.5516667962	0.04053921625	0.008853927255	1.0
101	0	0	89.75341034	-0.5464677215	0.04306967556	0.009707907215	1.0
[Spine2]
98	0	0	89.75341034	1.419029355	0.4395683408	0.3893932998	1.0
99	0	0	89.75341034	1.38640964	0.4297002554	0.4090318978	1.0
100	0	0	89.75341034	1.356980801	0.4213321507	0.4254919291	1.0
101	0	0	89.75341034	1.345027208	0.4180143178	0.4305062294	1.0
[Spine3]
98	0	0	89.75341034	0.1179174334	-0.4217487872	-0.03808043152	1.0
99	0	0	89.75341034	0.1084791645	-0.4348656833	-0.02296545729	1.0
100	0	0	89.75341034	0.09998556226	-0.4470652342	-0.009846197441	1.0
101	0	0	89.75341034	0.09687422216	-0.453132391	-0.004759438802	1.0
[Neck]
98	0	-33.65752792	235.6027069	-1.088727355	-0.2464906424	-0.2043779343	1.0
99	0	-33.65752792	235.6027069	-1.073467016	-0.2770045996	-0.2271644324	1.0
100	0	-33.65752792	235.6027069	-1.058219075	-0.3069148064	-0.2477282286	1.0
101	0	-33.65752792	235.6027069	-1.047741413	-0.3255543113	-0.2574187517	1.0
[Head]
98	0	0	123.4109421	-0.8214272261	-0.1762246192	-1.030041218	1.0
99	0	0	123.4109421	-0.7985423803	-0.14795506	-1.049329281	1.0
100	0	0	123.4109421	-0.7766696215	-0.1213417873	-1.065576077	1.0
101	0	0	123.4109421	-0.7649399638	-0.109315373	-1.070203424	1.0
[HeadEnd]
98	0	0	145.2883301	0	0	0	1.0
99	0	0	145.2883301	0	0	0	1.0
100	0	0	145.2883301	0	0	0	1.0
101	0	0	145.2883301	0	0	0	1.0
[RightShoulder]
98	-30.74827576	-51.24713135	166.0407104	-4.461057186	-6.166695118	1.010738969	1.0
99	-30.74827576	-51.24713135	166.0407104	-4.45912838	-6.168014526	1.044140816	1.0
100	-30.74827576	-51.24713135	166.0407104	-4.456112862	-6.167770386	1.07376945	1.0
101	-30.74827576	-51.24713135	166.0407104	-4.452717304	-6.165923595	1.086018801	1.0
[RightArm]
98	152.7164459	0	0	-24.92508125	-69.26277924	4.347427368	1.0
99	152.7164459	0	0	-25.03830338	-69.24238586	4.481831551	1.0
100	152.7164459	0	0	-25.13928986	-69.22583771	4.616615295	1.0
101	152.7164459	0	0	-25.1762886	-69.21828461	4.700880051	1.0
[RightForeArm]
98	297.8946228	0	0	0	0	-31.15958595	1.0
99	297.8946228	0	0	0	0	-31.17700195	1.0
100	297.8946228	0	0	0	0	-31.19736481	1.0
101	297.8946228	0	0	0	0	-31.21265602	1.0
[RightForeArmRoll]
98	122.9768982	0	0	4.475146294	0	0	1.0
99	122.9768982	0	0	4.648070335	0	0	1.0
100	122.9768982	0	0	4.820569992	0	0	1.0
101	122.9768982	0	0	4.946876049	0	0	1.0
[RightHand]
98	127.1009369	0	0	-1.945847725e-005	8.180058479	-3.158178091	1.0
99	127.1009369	0	0	-1.737463754e-005	8.174464226	-3.27147913	1.0
100	127.1009369	0	0	-1.166729999e-005	8.143128395	-3.380580425	1.0
101	127.1009369	0	0	-5.01932931e-017	8.07062912	-3.451996565	1.0
[RightHandEnd]
98	72.05677795	0	0	0	0	0	1.0
99	72.05677795	0	0	0	0	0	1.0
100	72.05677795	0	0	0	0	0	1.0
101	72.05677795	0	0	0	0	0	1.0
[R_FingersEnd]
98	72.05677795	0	0	0	0	0	1.0
99	72.05677795	0	0	0	0	0	1.0
100	72.05677795	0	0	0	0	0	1.0
101	72.05677795	0	0	0	0	0	1.0
[RightHandThumb1]
98	28.82271004	-48.03784943	19.2151413	0	0	0	1.0
99	28.82271004	-48.03784943	19.2151413	0	0	0	1.0
100	28.82271004	-48.03784943	19.2151413	0	0	0	1.0
101	28.82271004	-48.03784943	19.2151413	0	0	0	1.0
[RightHandThumb2]
98	72.05677795	0	0	0	0	0	1.0
99	72.05677795	0	0	0	0	0	1.0
100	72.05677795	0	0	0	0	0	1.0
101	72.05677795	0	0	0	0	0	1.0
[LeftShoulder]
98	30.74827576	-51.24713135	166.0407104	5.489798069	6.024441242	2.928657293	1.0
99	30.74827576	-51.24713135	166.0407104	5.52182579	6.05553627	2.878162384	1.0
100	30.74827576	-51.24713135	166.0407104	5.550896645	6.085335732	2.832874298	1.0
101	30.74827576	-51.24713135	166.0407104	5.566476822	6.102685928	2.814258814	1.0
[LeftArm]
98	152.7164459	0	0	3.895556688	68.82810974	-34.3635025	1.0
99	152.7164459	0	0	3.945302486	68.81613922	-34.38412094	1.0
100	152.7164459	0	0	3.999046326	68.80492401	-34.39889526	1.0
101	152.7164459	0	0	4.040124893	68.7995224	-34.40618515	1.0
[LeftForeArm]
98	297.8946228	0	0	0	0	-19.13473129	1.0
99	297.8946228	0	0	0	0	-19.10211945	1.0
100	297.8946228	0	0	0	0	-19.07292557	1.0
101	297.8946228	0	0	0	0	-19.05917931	1.0
[LeftForeArmRoll]
98	122.9768982	0	0	-5.326425552	0	0	1.0
99	122.9768982	0	0	-5.43778801	0	0	1.0
100	122.9768982	0	0	-5.530838966	0	0	1.0
101	122.9768982	0	0	-5.529569626	0	0	1.0
[LeftHand]
98	127.1009369	0	0	-0.0002421168028	-21.33824348	0.5305299759	1.0
99	127.1009369	0	0	-0.0001452398865	-21.50257492	0.4269160032	1.0
100	127.1009369	0	0	-3.648566053e-005	-21.65469742	0.3366411626	1.0
101	127.1009369	0	0	0	-21.72857475	0.3213340342	1.0
[LeftHandEnd]
98	72.05677795	0	0	0	0	0	1.0
99	72.05677795	0	0	0	0	0	1.0
100	72.05677795	0	0	0	0	0	1.0
101	72.05677795	0	0	0	0	0	1.0
[L_FingersEnd]
98	72.05677795	0	0	0	0	0	1.0
99	72.05677795	0	0	0	0	0	1.0
100	72.05677795	0	0	0	0	0	1.0
101	72.05677795	0	0	0	0	0	1.0
[LeftHandThumb1]
98	28.82271004	-48.03784943	-19.2151413	0	0	0	1.0
99	28.82271004	-48.03784943	-19.2151413	0	0	0	1.0
100	28.82271004	-48.03784943	-19.2151413	0	0	0	1.0
101	28.82271004	-48.03784943	-19.2151413	0	0	0	1.0
[LeftHandThumb2]
98	72.05677795	0	0	0	0	0	1.0
99	72.05677795	0	0	0	0	0	1.0
100	72.05677795	0	0	0	0	0	1.0
101	72.05677795	0	0	0	0	0	1.0
[RightUpLeg]
98	-91.21989441	0	-26.64850616	9.45349884	4.211340427	-0.9260809422	1.0
99	-91.21989441	0	-26.64850616	9.449352264	4.19843626	-0.915079236	1.0
100	-91.21989441	0	-26.64850616	9.44585228	4.184793472	-0.9009338021	1.0
101	-91.21989441	0	-26.64850616	9.444604874	4.176717758	-0.8894879818	1.0
[RightLeg]
98	402.8824463	0	0	0	0	14.54344654	1.0
99	402.8824463	0	0	0	0	14.52761841	1.0
100	402.8824463	0	0	0	0	14.51081181	1.0
101	402.8824463	0	0	0	0	14.49792671	1.0
[RightFoot]
98	435.9781189	0	0	4.442761421	-1.811133146	-14.81420231	1.0
99	435.9781189	0	0	4.448348999	-1.807588339	-14.8101635	1.0
100	435.9781189	0	0	4.452654362	-1.803136826	-14.80699348	1.0
101	435.9781189	0	0	4.452865124	-1.802865982	-14.80427074	1.0
[RightToeBase]
98	183.1846619	0	0	0	0	0.8621256351	1.0
99	183.1846619	0	0	0	0	0.8719223142	1.0
100	183.1846619	0	0	0	0	0.8850274086	1.0
101	183.1846619	0	0	0	0	0.8958579302	1.0
[RightToeBaseEnd]
98	73.79586792	0	0	0	0	0	1.0
99	73.79586792	0	0	0	0	0	1.0
100	73.79586792	0	0	0	0	0	1.0
101	73.79586792	0	0	0	0	0	1.0
[LeftUpLeg]
98	91.21989441	0	-26.64850616	0.797370851	-5.153944492	0.1481218636	1.0
99	91.21989441	0	-26.64850616	0.8213804364	-5.163029671	0.1589048803	1.0
100	91.21989441	0	-26.64850616	0.8448758721	-5.172852993	0.1721788943	1.0
101	91.21989441	0	-26.64850616	0.8602162004	-5.178453922	0.1844019741	1.0
[LeftLeg]
98	402.8824463	0	0	0	0	11.15391159	1.0
99	402.8824463	0	0	0	0	11.14048386	1.0
100	402.8824463	0	0	0	0	11.12690353	1.0
101	402.8824463	0	0	0	0	11.11519241	1.0
[LeftFoot]
98	435.9781189	0	0	-7.985400677	-0.3876156211	-12.57203865	1.0
99	435.9781189	0	0	-8.001181602	-0.4056706429	-12.56538105	1.0
100	435.9781189	0	0	-8.017384529	-0.4217997491	-12.55918503	1.0
101	435.9781189	0	0	-8.028792381	-0.4342191517	-12.55378342	1.0
[LeftToeBase]
98	183.1846619	0	0	0	0	0.8042851686	1.0
99	183.1846619	0	0	0	0	0.8051370978	1.0
100	183.1846619	0	0	0	0	0.8065626025	1.0
101	183.1846619	0	0	0	0	0.8081599474	1.0
[LeftToeBaseEnd]
98	73.79586792	0	0	0	0	0	1.0
99	73.79586792	0	0	0	0	0	1.0
100	73.79586792	0	0	0	0	0	1.0
101	73.79586792	0	0	0	0	0	1.0
[EndOfFile]
